<?xml version="1.0" encoding="UTF-8" standalone="no"?>
<svg
   xmlns:dc="http://purl.org/dc/elements/1.1/"
   xmlns:cc="http://creativecommons.org/ns#"
   xmlns:rdf="http://www.w3.org/1999/02/22-rdf-syntax-ns#"
   xmlns:svg="http://www.w3.org/2000/svg"
   xmlns="http://www.w3.org/2000/svg"
   viewBox="0 0 677 508"
   height="508"
   width="677"
   id="svg2"
   version="1.1">
  <metadata
     id="metadata8">
    <rdf:RDF>
      <cc:Work
         rdf:about="">
        <dc:format>image/svg+xml</dc:format>
        <dc:type
           rdf:resource="http://purl.org/dc/dcmitype/StillImage" />
        <dc:title></dc:title>
      </cc:Work>
    </rdf:RDF>
  </metadata>
  <defs
     id="defs6" />
  <path
     d="m 98.02822,91.993965 c -6.04209,-7.1e-4 -12.68419,0.01939 -20.01368,0.05469 l -56,0.269531 -0.25586,79.437497 c -0.19305,59.89088 0.0324,79.61598 0.91602,80.16211 1.78881,1.10554 94.29773,1.06635 111.36523,-0.0469 53.1515,-3.4667 81.19148,-21.48042 89.51758,-57.51172 1.9267,-8.33774 2.13545,-11.47753 1.71485,-25.76758 -0.3876,-13.16888 -0.906,-17.60866 -2.7168,-23.27341 -8.0712,-25.24908 -26.72192,-41.75237 -55.16602,-48.814449 -14.13038,-3.50826 -27.0667,-4.504786 -69.36132,-4.509766 z M 62.51454,122.81818 h 40.33985 c 36.9182,0 40.99777,0.16817 48.07617,1.97852 22.7562,5.82005 33.62441,20.68517 33.56641,45.9082 -0.01,4.18743 -0.65129,10.60362 -1.42579,14.25781 -3.7814,17.84049 -14.81794,27.89146 -36.27734,33.03516 -7.9042,1.89461 -12.5411,2.14735 -46.5293,2.54492 l -37.75,0.44141 V 171.90217 Z M 587.46376,91.9842 c -10.92245,-0.007 -24.48807,0.02147 -41.44922,0.07617 l -80,0.257812 -0.25586,79.437496 c -0.2027,62.88839 0.006,79.60306 1,80.23438 1.4584,0.92593 34.81993,1.12396 37.17383,0.2207 1.3936,-0.53476 1.58203,-4.16397 1.58203,-30.5 v -29.89258 h 17.08985 17.08984 l 5.26367,4.75 c 47.5858,42.94273 61.00489,54.85347 62.39649,55.38477 0.9137,0.34886 13.69765,0.70241 28.41015,0.78711 25.1038,0.1445 26.74732,0.0454 26.69532,-1.63282 -0.0339,-1.09633 -7.6759,-7.81774 -19.75,-17.37109 -10.8321,-8.57067 -27.03075,-21.39567 -35.99805,-28.5 l -16.30469,-12.91797 24.80469,-0.54297 c 26.2668,-0.57545 29.55047,-1.12221 36.17187,-6.01758 1.6184,-1.19657 4.22251,-4.48406 5.78711,-7.30663 l 2.84375,-5.13282 0.32032,-28.2539 c 0.3584,-31.68323 -0.28826,-36.29324 -6.00196,-42.80078 -4.3256,-4.926627 -9.21931,-7.170243 -19.50781,-8.943363 -5.60355,-0.96567 -14.59398,-1.314027 -47.36133,-1.335937 z m -81.94922,29.78711 58.97852,0.27344 58.97852,0.27343 2.77148,2.76953 c 2.6804,2.67821 2.78353,3.17585 3.11133,14.98243 0.404,14.55196 -0.54485,18.5351 -5.06055,21.26562 -3.1544,1.90738 -5.4861,1.99416 -61.0293,2.27149 l -57.75,0.28711 v -21.06055 z m -243.11052,-30.004521 -15.69531,0.27539 -15.69336,0.27539 -0.25586,79.689451 -0.25586,79.68946 3.75586,0.40625 c 2.0658,0.22382 9.15586,0.36354 15.75586,0.31054 l 12,-0.0957 0.5,-52.08008 0.5,-52.08008 13.5,16.41407 c 7.425,9.02718 22.98056,27.96327 34.56836,42.08007 l 21.07031,25.66602 5.11914,0.30078 5.1211,0.29883 11.35156,-14.29883 c 6.2437,-7.86508 14.35208,-18.12578 18.01758,-22.80078 3.6654,-4.675 14.10968,-17.90497 23.20898,-29.40039 l 16.54297,-20.90039 v 53.05469 53.05273 l 10.25,0.56055 c 5.6375,0.30785 13.96506,0.46751 18.50586,0.35351 l 8.25586,-0.20898 -0.25586,-80.00586 -0.25586,-80.005861 -15.10742,-0.27539 c -13.2868,-0.2421 -15.35253,-0.0613 -17.14063,1.5 -1.6768,1.46404 -44.5678,53.317471 -69.1289,83.574221 -3.4819,4.28926 -6.68319,7.66426 -7.11329,7.5 -0.43,-0.16427 -6.71108,-7.49883 -13.95898,-16.29883 -7.2479,-8.8 -20.32193,-24.59915 -29.05273,-35.10938 -8.7307,-10.51022 -19.97709,-24.13431 -24.99219,-30.27539 z"
     style="fill:#3a3a3c;fill-opacity:1"
     id="path4637" />
  <path
     id="path4621"
     d="m 21.51535,301.81781 v 51 51 l 2.25,-0.0195 c 2.64016,-0.0236 5.19109,-0.40453 42.75,-6.36718 15.67502,-2.48848 31.875,-5.03269 36,-5.6543 4.125,-0.62161 11.1,-1.75621 15.5,-2.52149 4.4,-0.76527 10.925,-1.81603 14.5,-2.33593 7.0239,-1.02145 126.789,-19.90744 146.5,-23.10157 19.5231,-3.16368 135.4846,-21.56383 176.5,-28.00586 4.8348,-0.75938 21.2781,-3.35264 38,-5.99414 3.025,-0.47785 11.575,-1.82785 19,-3 7.425,-1.17215 15.975,-2.52498 19,-3.00586 3.025,-0.48088 18.325,-2.89938 34,-5.375 15.675,-2.47562 39.75,-6.28594 53.5,-8.4668 13.75,-2.18087 27.3625,-4.27417 30.25,-4.65234 3.5183,-0.46079 5.25,-1.15141 5.25,-2.09375 0,-1.20525 -45.2205,-1.40625 -316.5,-1.40625 z"
     style="fill:#006a74;fill-opacity:1" />
</svg>
