<?xml version="1.0" encoding="UTF-8" standalone="no"?>
<svg
   xmlns:dc="http://purl.org/dc/elements/1.1/"
   xmlns:cc="http://creativecommons.org/ns#"
   xmlns:rdf="http://www.w3.org/1999/02/22-rdf-syntax-ns#"
   xmlns:svg="http://www.w3.org/2000/svg"
   xmlns="http://www.w3.org/2000/svg"
   viewBox="0 0 677 508"
   height="508"
   width="677"
   id="svg2"
   version="1.1">
  <metadata
     id="metadata8">
    <rdf:RDF>
      <cc:Work
         rdf:about="">
        <dc:format>image/svg+xml</dc:format>
        <dc:type
           rdf:resource="http://purl.org/dc/dcmitype/StillImage" />
        <dc:title></dc:title>
      </cc:Work>
    </rdf:RDF>
  </metadata>
  <defs
     id="defs6" />
  <path
     d="m 98.02822,91.993965 c -6.04209,-7.1e-4 -12.68419,0.01939 -20.01368,0.05469 l -56,0.269531 -0.25586,79.437497 c -0.19305,59.89088 0.0324,79.61598 0.91602,80.16211 1.78881,1.10554 94.29773,1.06635 111.36523,-0.0469 53.1515,-3.4667 81.19148,-21.48042 89.51758,-57.51172 1.9267,-8.33774 2.13545,-11.47753 1.71485,-25.76758 -0.3876,-13.16888 -0.906,-17.60866 -2.7168,-23.27341 -8.0712,-25.24908 -26.72192,-41.75237 -55.16602,-48.814449 -14.13038,-3.50826 -27.0667,-4.504786 -69.36132,-4.509766 z M 62.51454,122.81818 h 40.33985 c 36.9182,0 40.99777,0.16817 48.07617,1.97852 22.7562,5.82005 33.62441,20.68517 33.56641,45.9082 -0.01,4.18743 -0.65129,10.60362 -1.42579,14.25781 -3.7814,17.84049 -14.81794,27.89146 -36.27734,33.03516 -7.9042,1.89461 -12.5411,2.14735 -46.5293,2.54492 l -37.75,0.44141 V 171.90217 Z M 587.46376,91.9842 c -10.92245,-0.007 -24.48807,0.02147 -41.44922,0.07617 l -80,0.257812 -0.25586,79.437496 c -0.2027,62.88839 0.006,79.60306 1,80.23438 1.4584,0.92593 34.81993,1.12396 37.17383,0.2207 1.3936,-0.53476 1.58203,-4.16397 1.58203,-30.5 v -29.89258 h 17.08985 17.08984 l 5.26367,4.75 c 47.5858,42.94273 61.00489,54.85347 62.39649,55.38477 0.9137,0.34886 13.69765,0.70241 28.41015,0.78711 25.1038,0.1445 26.74732,0.0454 26.69532,-1.63282 -0.0339,-1.09633 -7.6759,-7.81774 -19.75,-17.37109 -10.8321,-8.57067 -27.03075,-21.39567 -35.99805,-28.5 l -16.30469,-12.91797 24.80469,-0.54297 c 26.2668,-0.57545 29.55047,-1.12221 36.17187,-6.01758 1.6184,-1.19657 4.22251,-4.48406 5.78711,-7.30663 l 2.84375,-5.13282 0.32032,-28.2539 c 0.3584,-31.68323 -0.28826,-36.29324 -6.00196,-42.80078 -4.3256,-4.926627 -9.21931,-7.170243 -19.50781,-8.943363 -5.60355,-0.96567 -14.59398,-1.314027 -47.36133,-1.335937 z m -81.94922,29.78711 58.97852,0.27344 58.97852,0.27343 2.77148,2.76953 c 2.6804,2.67821 2.78353,3.17585 3.11133,14.98243 0.404,14.55196 -0.54485,18.5351 -5.06055,21.26562 -3.1544,1.90738 -5.4861,1.99416 -61.0293,2.27149 l -57.75,0.28711 v -21.06055 z m -243.11052,-30.004521 -15.69531,0.27539 -15.69336,0.27539 -0.25586,79.689451 -0.25586,79.68946 3.75586,0.40625 c 2.0658,0.22382 9.15586,0.36354 15.75586,0.31054 l 12,-0.0957 0.5,-52.08008 0.5,-52.08008 13.5,16.41407 c 7.425,9.02718 22.98056,27.96327 34.56836,42.08007 l 21.07031,25.66602 5.11914,0.30078 5.1211,0.29883 11.35156,-14.29883 c 6.2437,-7.86508 14.35208,-18.12578 18.01758,-22.80078 3.6654,-4.675 14.10968,-17.90497 23.20898,-29.40039 l 16.54297,-20.90039 v 53.05469 53.05273 l 10.25,0.56055 c 5.6375,0.30785 13.96506,0.46751 18.50586,0.35351 l 8.25586,-0.20898 -0.25586,-80.00586 -0.25586,-80.005861 -15.10742,-0.27539 c -13.2868,-0.2421 -15.35253,-0.0613 -17.14063,1.5 -1.6768,1.46404 -44.5678,53.317471 -69.1289,83.574221 -3.4819,4.28926 -6.68319,7.66426 -7.11329,7.5 -0.43,-0.16427 -6.71108,-7.49883 -13.95898,-16.29883 -7.2479,-8.8 -20.32193,-24.59915 -29.05273,-35.10938 -8.7307,-10.51022 -19.97709,-24.13431 -24.99219,-30.27539 z"
     style="fill:#3a3a3c;fill-opacity:1"
     id="path4637" />
  <path
     id="path4621"
     d="m 21.51535,301.81781 v 51 51 l 2.25,-0.0195 c 2.64016,-0.0236 5.19109,-0.40453 42.75,-6.36718 15.67502,-2.48848 31.875,-5.03269 36,-5.6543 4.125,-0.62161 11.1,-1.75621 15.5,-2.52149 4.4,-0.76527 10.925,-1.81603 14.5,-2.33593 7.0239,-1.02145 126.789,-19.90744 146.5,-23.10157 19.5231,-3.16368 135.4846,-21.56383 176.5,-28.00586 4.8348,-0.75938 21.2781,-3.35264 38,-5.99414 3.025,-0.47785 11.575,-1.82785 19,-3 7.425,-1.17215 15.975,-2.52498 19,-3.00586 3.025,-0.48088 18.325,-2.89938 34,-5.375 15.675,-2.47562 39.75,-6.28594 53.5,-8.4668 13.75,-2.18087 27.3625,-4.27417 30.25,-4.65234 3.5183,-0.46079 5.25,-1.15141 5.25,-2.09375 0,-1.20525 -45.2205,-1.40625 -316.5,-1.40625 z"
     style="fill:#006a74;fill-opacity:1" />
  <path
     id="path11"
     d="M 136.41602 268.93945 L 136.41602 287.25781 L 158.31836 287.25781 L 158.31836 283.9043 L 140.43164 283.9043 L 140.43164 268.93945 L 136.41602 268.93945 z M 254.94922 268.93945 L 254.94922 287.25781 L 276.85156 287.25781 L 276.85156 283.9043 L 258.96484 283.9043 L 258.96484 268.93945 L 254.94922 268.93945 z M 23.855469 268.96484 L 23.855469 287.25781 L 41.5 287.25781 C 42.676258 287.25781 43.678273 286.91967 44.509766 286.24219 C 45.341258 285.54777 45.757812 284.70892 45.757812 283.72656 L 45.757812 272.49609 C 45.757813 271.51374 45.341258 270.68529 44.509766 270.00781 C 43.678273 269.31339 42.676258 268.96484 41.5 268.96484 L 23.855469 268.96484 z M 49.195312 268.96484 L 49.195312 287.25781 L 53.210938 287.25781 L 53.210938 268.96484 L 49.195312 268.96484 z M 60.107422 268.96484 C 58.931165 268.96484 57.927196 269.31339 57.095703 270.00781 C 56.28449 270.68529 55.878906 271.51374 55.878906 272.49609 L 55.878906 283.72656 C 55.878906 284.70892 56.28449 285.54777 57.095703 286.24219 C 57.927196 286.91967 58.931165 287.25781 60.107422 287.25781 L 73.521484 287.25781 C 74.697742 287.25781 75.701711 286.91967 76.533203 286.24219 C 77.364696 285.54777 77.78125 284.70892 77.78125 283.72656 L 77.78125 276.91797 L 68.777344 276.91797 L 68.777344 280.27148 L 73.734375 280.27148 L 73.734375 283.72656 C 73.734375 283.84513 73.663446 283.9043 73.521484 283.9043 L 60.107422 283.9043 C 59.96546 283.9043 59.894531 283.84513 59.894531 283.72656 L 59.894531 272.49609 C 59.894531 272.37753 59.96546 272.31836 60.107422 272.31836 L 73.521484 272.31836 C 73.663446 272.31836 73.734375 272.37753 73.734375 272.49609 L 73.734375 273.91992 L 77.78125 273.91992 L 77.78125 272.49609 C 77.78125 271.51374 77.364696 270.68529 76.533203 270.00781 C 75.701711 269.31339 74.697742 268.96484 73.521484 268.96484 L 60.107422 268.96484 z M 81.160156 268.96484 L 81.160156 287.25781 L 85.175781 287.25781 L 85.175781 268.96484 L 81.160156 268.96484 z M 86.748047 268.96484 L 86.748047 272.31836 L 95.691406 272.31836 L 95.691406 287.25781 L 99.738281 287.25781 L 99.738281 272.31836 L 108.65039 272.31836 L 108.65039 268.96484 L 86.748047 268.96484 z M 115.24609 268.96484 C 114.06984 268.96484 113.06587 269.31339 112.23438 270.00781 C 111.42316 270.68529 111.01758 271.51374 111.01758 272.49609 L 111.01758 287.25781 L 115.0332 287.25781 L 115.0332 281.10938 L 128.87305 281.10938 L 128.87305 287.25781 L 132.91992 287.25781 L 132.91992 272.49609 C 132.91992 271.51374 132.50337 270.68529 131.67188 270.00781 C 130.84038 269.31339 129.83641 268.96484 128.66016 268.96484 L 115.24609 268.96484 z M 169.48047 268.96484 L 169.48047 287.25781 L 173.49609 287.25781 L 173.49609 273.84375 L 181.83008 282.09961 L 190.13477 273.84375 L 190.13477 287.25781 L 194.18164 287.25781 L 194.18164 268.96484 L 189.76953 268.96484 L 181.83008 276.89258 L 173.85938 268.96484 L 169.48047 268.96484 z M 201.86914 268.96484 C 200.69289 268.96484 199.68892 269.31339 198.85742 270.00781 C 198.04621 270.68529 197.64063 271.51374 197.64062 272.49609 L 197.64062 283.72656 C 197.64062 284.70892 198.04621 285.54777 198.85742 286.24219 C 199.68892 286.91967 200.69289 287.25781 201.86914 287.25781 L 215.31445 287.25781 C 216.47044 287.25781 217.46539 286.91967 218.29688 286.24219 C 219.12837 285.54777 219.54297 284.70892 219.54297 283.72656 L 219.54297 272.49609 C 219.54297 271.51374 219.12837 270.68529 218.29688 270.00781 C 217.46539 269.31339 216.47044 268.96484 215.31445 268.96484 L 201.86914 268.96484 z M 222.98438 268.96484 L 222.98438 287.25781 L 240.62891 287.25781 C 241.80517 287.25781 242.80914 286.91967 243.64062 286.24219 C 244.47212 285.54777 244.88867 284.70892 244.88867 283.72656 L 244.88867 279.78906 C 244.88867 278.87446 244.4921 278.06942 243.70117 277.375 C 243.90397 277.01932 244.00586 276.58624 244.00586 276.07812 L 244.00586 272.49609 C 244.00586 271.51374 243.58931 270.68529 242.75781 270.00781 C 241.92633 269.31339 240.93332 268.96484 239.77734 268.96484 L 222.98438 268.96484 z M 248.23438 268.96484 L 248.23438 287.25781 L 252.25 287.25781 L 252.25 268.96484 L 248.23438 268.96484 z M 278.68555 268.96484 L 278.68555 287.25781 L 298.82422 287.25781 L 298.82422 283.9043 L 282.73242 283.9043 L 282.73242 279.78906 L 295.69141 279.78906 L 295.69141 276.43555 L 282.73242 276.43555 L 282.73242 272.31836 L 298.82422 272.31836 L 298.82422 268.96484 L 278.68555 268.96484 z M 340.66602 268.96484 C 339.48976 268.96484 338.48579 269.31339 337.6543 270.00781 C 336.84308 270.68529 336.4375 271.51374 336.4375 272.49609 L 336.4375 287.25781 L 340.45312 287.25781 L 340.45312 281.10938 L 354.29492 281.10938 L 354.29492 287.25781 L 358.33984 287.25781 L 358.33984 272.49609 C 358.33984 271.51374 357.92329 270.68529 357.0918 270.00781 C 356.2603 269.31339 355.25828 268.96484 354.08203 268.96484 L 340.66602 268.96484 z M 361.86719 268.96484 L 361.86719 287.25781 L 379.50977 287.25781 C 380.68603 287.25781 381.68999 286.91967 382.52148 286.24219 C 383.35298 285.54777 383.76953 284.70892 383.76953 283.72656 L 383.76953 272.49609 C 383.76953 271.51374 383.35298 270.68529 382.52148 270.00781 C 381.68999 269.31339 380.68603 268.96484 379.50977 268.96484 L 361.86719 268.96484 z M 387.20703 268.96484 L 387.20703 287.25781 L 391.22266 287.25781 L 391.22266 268.96484 L 387.20703 268.96484 z M 398.05859 268.96484 C 396.88233 268.96484 395.87836 269.31339 395.04688 270.00781 C 394.23566 270.68529 393.83008 271.51374 393.83008 272.49609 L 393.83008 283.72656 C 393.83008 284.70892 394.23566 285.54777 395.04688 286.24219 C 395.87836 286.91967 396.88233 287.25781 398.05859 287.25781 L 411.50391 287.25781 C 412.65989 287.25781 413.65288 286.91967 414.48438 286.24219 C 415.31587 285.54777 415.73242 284.70892 415.73242 283.72656 L 415.73242 272.49609 C 415.73242 271.51374 415.31587 270.68529 414.48438 270.00781 C 413.65288 269.31339 412.65989 268.96484 411.50391 268.96484 L 398.05859 268.96484 z M 432.75977 268.96484 C 431.58351 268.96484 430.57954 269.31339 429.74805 270.00781 C 428.93683 270.68529 428.53125 271.51374 428.53125 272.49609 L 428.53125 287.25781 L 432.54492 287.25781 L 432.54492 281.10938 L 446.38672 281.10938 L 446.38672 287.25781 L 450.43359 287.25781 L 450.43359 272.49609 C 450.43359 271.51374 450.01703 270.68529 449.18555 270.00781 C 448.35405 269.31339 447.35008 268.96484 446.17383 268.96484 L 432.75977 268.96484 z M 457.97461 268.96484 C 456.79835 268.96484 455.79438 269.31339 454.96289 270.00781 C 454.15168 270.68529 453.74609 271.51374 453.74609 272.49609 L 453.74609 276.25586 C 453.74609 277.23821 454.15168 278.07706 454.96289 278.77148 C 455.79438 279.44897 456.79835 279.78906 457.97461 279.78906 L 471.42188 279.78906 C 471.54355 279.78906 471.60352 279.84824 471.60352 279.9668 L 471.60352 283.72656 C 471.60352 283.84513 471.54356 283.9043 471.42188 283.9043 L 457.97461 283.9043 C 457.83265 283.9043 457.76172 283.84513 457.76172 283.72656 L 457.76172 282.32812 L 453.74609 282.32812 L 453.74609 283.72656 C 453.74609 284.70892 454.15168 285.54777 454.96289 286.24219 C 455.79438 286.91967 456.79835 287.25781 457.97461 287.25781 L 471.42188 287.25781 C 472.57785 287.25781 473.57085 286.91967 474.40234 286.24219 C 475.23384 285.54777 475.65039 284.70892 475.65039 283.72656 L 475.65039 279.9668 C 475.65039 278.98445 475.23384 278.15405 474.40234 277.47656 C 473.57085 276.78214 472.57785 276.43555 471.42188 276.43555 L 457.97461 276.43555 C 457.83265 276.43555 457.76172 276.37442 457.76172 276.25586 L 457.76172 272.49609 C 457.76172 272.37753 457.83265 272.31836 457.97461 272.31836 L 471.42188 272.31836 C 471.54355 272.31836 471.60352 272.37753 471.60352 272.49609 L 471.60352 273.89453 L 475.65039 273.89453 L 475.65039 272.49609 C 475.65039 271.51374 475.23384 270.68529 474.40234 270.00781 C 473.57085 269.31339 472.57785 268.96484 471.42188 268.96484 L 457.97461 268.96484 z M 482.98828 268.96484 C 481.81203 268.96484 480.80806 269.31339 479.97656 270.00781 C 479.16535 270.68529 478.75977 271.51374 478.75977 272.49609 L 478.75977 276.25586 C 478.75977 277.23821 479.16535 278.07706 479.97656 278.77148 C 480.80806 279.44897 481.81203 279.78906 482.98828 279.78906 L 496.43555 279.78906 C 496.55723 279.78906 496.61719 279.84824 496.61719 279.9668 L 496.61719 283.72656 C 496.61719 283.84513 496.55723 283.9043 496.43555 283.9043 L 482.98828 283.9043 C 482.84632 283.9043 482.77539 283.84513 482.77539 283.72656 L 482.77539 282.32812 L 478.75977 282.32812 L 478.75977 283.72656 C 478.75977 284.70892 479.16535 285.54777 479.97656 286.24219 C 480.80806 286.91967 481.81203 287.25781 482.98828 287.25781 L 496.43555 287.25781 C 497.59152 287.25781 498.58452 286.91967 499.41602 286.24219 C 500.24751 285.54777 500.66406 284.70892 500.66406 283.72656 L 500.66406 279.9668 C 500.66406 278.98445 500.24751 278.15405 499.41602 277.47656 C 498.58452 276.78214 497.59152 276.43555 496.43555 276.43555 L 482.98828 276.43555 C 482.84632 276.43555 482.77539 276.37442 482.77539 276.25586 L 482.77539 272.49609 C 482.77539 272.37753 482.84632 272.31836 482.98828 272.31836 L 496.43555 272.31836 C 496.55723 272.31836 496.61719 272.37753 496.61719 272.49609 L 496.61719 273.89453 L 500.66406 273.89453 L 500.66406 272.49609 C 500.66406 271.51374 500.24751 270.68529 499.41602 270.00781 C 498.58452 269.31339 497.59152 268.96484 496.43555 268.96484 L 482.98828 268.96484 z M 508.09375 268.96484 C 506.91749 268.96484 505.91352 269.31339 505.08203 270.00781 C 504.27082 270.68529 503.86523 271.51374 503.86523 272.49609 L 503.86523 283.72656 C 503.86523 284.70892 504.27082 285.54777 505.08203 286.24219 C 505.91352 286.91967 506.91749 287.25781 508.09375 287.25781 L 521.53906 287.25781 C 522.69504 287.25781 523.68999 286.91967 524.52148 286.24219 C 525.35297 285.54777 525.76758 284.70892 525.76758 283.72656 L 525.76758 272.49609 C 525.76758 271.51374 525.35297 270.68529 524.52148 270.00781 C 523.68999 269.31339 522.69504 268.96484 521.53906 268.96484 L 508.09375 268.96484 z M 533.34766 268.96484 C 532.1714 268.96484 531.16743 269.31339 530.33594 270.00781 C 529.52473 270.68529 529.11914 271.51374 529.11914 272.49609 L 529.11914 283.72656 C 529.11914 284.70892 529.52473 285.54777 530.33594 286.24219 C 531.16743 286.91967 532.1714 287.25781 533.34766 287.25781 L 550.96094 287.25781 L 550.96094 283.9043 L 533.34766 283.9043 C 533.20569 283.9043 533.13477 283.84513 533.13477 283.72656 L 533.13477 272.49609 C 533.13477 272.37753 533.20569 272.31836 533.34766 272.31836 L 550.96094 272.31836 L 550.96094 268.96484 L 533.34766 268.96484 z M 554.16211 268.96484 L 554.16211 287.25781 L 558.17773 287.25781 L 558.17773 268.96484 L 554.16211 268.96484 z M 565.13477 268.96484 C 563.9585 268.96484 562.95453 269.31339 562.12305 270.00781 C 561.31183 270.68529 560.90625 271.51374 560.90625 272.49609 L 560.90625 287.25781 L 564.92188 287.25781 L 564.92188 281.10938 L 578.76367 281.10938 L 578.76367 287.25781 L 582.80859 287.25781 L 582.80859 272.49609 C 582.80859 271.51374 582.39399 270.68529 581.5625 270.00781 C 580.73101 269.31339 579.72703 268.96484 578.55078 268.96484 L 565.13477 268.96484 z M 585.17969 268.96484 L 585.17969 272.31836 L 594.125 272.31836 L 594.125 287.25781 L 598.16992 287.25781 L 598.16992 272.31836 L 607.08398 272.31836 L 607.08398 268.96484 L 585.17969 268.96484 z M 609.41797 268.96484 L 609.41797 287.25781 L 613.43359 287.25781 L 613.43359 268.96484 L 609.41797 268.96484 z M 620.26953 268.96484 C 619.09326 268.96484 618.08931 269.31339 617.25781 270.00781 C 616.44661 270.68529 616.04102 271.51374 616.04102 272.49609 L 616.04102 283.72656 C 616.04102 284.70892 616.44661 285.54777 617.25781 286.24219 C 618.08931 286.91967 619.09326 287.25781 620.26953 287.25781 L 633.71484 287.25781 C 634.87082 287.25781 635.86577 286.91967 636.69727 286.24219 C 637.52876 285.54777 637.94336 284.70892 637.94336 283.72656 L 637.94336 272.49609 C 637.94336 271.51374 637.52876 270.68529 636.69727 270.00781 C 635.86577 269.31339 634.87082 268.96484 633.71484 268.96484 L 620.26953 268.96484 z M 641.29297 268.96484 L 641.29297 287.25781 L 645.30859 287.25781 L 645.30859 273.84375 L 658.81641 287.25781 L 663.19727 287.25781 L 663.19727 268.96484 L 659.15039 268.96484 L 659.15039 282.37891 L 645.67383 268.96484 L 641.29297 268.96484 z M 311.27344 268.99023 L 311.27344 287.25781 L 315.28906 287.25781 L 315.28906 280.98242 L 315.37891 280.98242 L 322.4668 280.98242 L 328.79492 287.25781 L 333.17578 287.25781 L 333.17578 286.39453 L 327.73047 280.98242 L 328.91602 280.98242 C 330.09227 280.98242 331.09624 280.63583 331.92773 279.94141 C 332.75923 279.24699 333.17578 278.41659 333.17578 277.45117 L 333.17578 272.52148 C 333.17578 271.55606 332.75923 270.72762 331.92773 270.0332 C 331.09624 269.33878 330.09227 268.99023 328.91602 268.99023 L 311.27344 268.99023 z M 28.083984 272.31836 L 41.5 272.31836 C 41.641963 272.31836 41.712891 272.37753 41.712891 272.49609 L 41.712891 283.72656 C 41.712891 283.84513 41.641963 283.9043 41.5 283.9043 L 28.083984 283.9043 C 27.942022 283.9043 27.871094 283.84513 27.871094 283.72656 L 27.871094 272.49609 C 27.871094 272.37753 27.942022 272.31836 28.083984 272.31836 z M 115.24609 272.31836 L 128.66016 272.31836 C 128.80212 272.31836 128.87305 272.37753 128.87305 272.49609 L 128.87305 277.75586 L 115.0332 277.75586 L 115.0332 272.49609 C 115.0332 272.37753 115.10413 272.31836 115.24609 272.31836 z M 201.86914 272.31836 L 215.31445 272.31836 C 215.43615 272.31836 215.49805 272.37753 215.49805 272.49609 L 215.49805 283.72656 C 215.49805 283.84513 215.43615 283.9043 215.31445 283.9043 L 201.86914 283.9043 C 201.72718 283.9043 201.65625 283.84513 201.65625 283.72656 L 201.65625 272.49609 C 201.65625 272.37753 201.72718 272.31836 201.86914 272.31836 z M 227.21289 272.31836 L 239.77734 272.31836 C 239.89902 272.31836 239.95898 272.37753 239.95898 272.49609 L 239.95898 276.07812 C 239.95898 276.19668 239.89902 276.25586 239.77734 276.25586 L 227.21289 276.25586 C 227.07093 276.25586 227 276.19669 227 276.07812 L 227 272.49609 C 227 272.37753 227.07093 272.31836 227.21289 272.31836 z M 340.66602 272.31836 L 354.08203 272.31836 C 354.22399 272.31836 354.29492 272.37753 354.29492 272.49609 L 354.29492 277.75586 L 340.45312 277.75586 L 340.45312 272.49609 C 340.45313 272.37753 340.52406 272.31836 340.66602 272.31836 z M 366.0957 272.31836 L 379.50977 272.31836 C 379.65173 272.31836 379.72266 272.37753 379.72266 272.49609 L 379.72266 283.72656 C 379.72266 283.84513 379.65173 283.9043 379.50977 283.9043 L 366.0957 283.9043 C 365.95374 283.9043 365.88281 283.84513 365.88281 283.72656 L 365.88281 272.49609 C 365.88281 272.37753 365.95374 272.31836 366.0957 272.31836 z M 398.05859 272.31836 L 411.50391 272.31836 C 411.62559 272.31836 411.68555 272.37753 411.68555 272.49609 L 411.68555 283.72656 C 411.68555 283.84513 411.62559 283.9043 411.50391 283.9043 L 398.05859 283.9043 C 397.91663 283.9043 397.84375 283.84513 397.84375 283.72656 L 397.84375 272.49609 C 397.84375 272.37753 397.91663 272.31836 398.05859 272.31836 z M 432.75977 272.31836 L 446.17383 272.31836 C 446.31579 272.31836 446.38672 272.37753 446.38672 272.49609 L 446.38672 277.75586 L 432.54492 277.75586 L 432.54492 272.49609 C 432.54492 272.37753 432.61781 272.31836 432.75977 272.31836 z M 508.09375 272.31836 L 521.53906 272.31836 C 521.66075 272.31836 521.72266 272.37753 521.72266 272.49609 L 521.72266 283.72656 C 521.72266 283.84513 521.66075 283.9043 521.53906 283.9043 L 508.09375 283.9043 C 507.95178 283.9043 507.88086 283.84513 507.88086 283.72656 L 507.88086 272.49609 C 507.88086 272.37753 507.95178 272.31836 508.09375 272.31836 z M 565.13477 272.31836 L 578.55078 272.31836 C 578.69274 272.31836 578.76367 272.37753 578.76367 272.49609 L 578.76367 277.75586 L 564.92188 277.75586 L 564.92188 272.49609 C 564.92188 272.37753 564.99281 272.31836 565.13477 272.31836 z M 620.26953 272.31836 L 633.71484 272.31836 C 633.83652 272.31836 633.89844 272.37753 633.89844 272.49609 L 633.89844 283.72656 C 633.89844 283.84513 633.83652 283.9043 633.71484 283.9043 L 620.26953 283.9043 C 620.12756 283.9043 620.05664 283.84513 620.05664 283.72656 L 620.05664 272.49609 C 620.05664 272.37753 620.12756 272.31836 620.26953 272.31836 z M 315.50195 272.34375 L 328.91602 272.34375 C 329.05798 272.34375 329.12891 272.40292 329.12891 272.52148 L 329.12891 277.45117 C 329.12891 277.56973 329.05798 277.62891 328.91602 277.62891 L 315.50195 277.62891 C 315.35999 277.62891 315.28906 277.56973 315.28906 277.45117 L 315.28906 272.52148 C 315.28906 272.40292 315.35999 272.34375 315.50195 272.34375 z M 227.21289 279.63672 L 240.62891 279.63672 C 240.77087 279.63672 240.8418 279.68744 240.8418 279.78906 L 240.8418 283.72656 C 240.8418 283.84513 240.77087 283.9043 240.62891 283.9043 L 227.21289 283.9043 C 227.07093 283.9043 227 283.84513 227 283.72656 L 227 279.78906 C 227 279.68744 227.07093 279.63672 227.21289 279.63672 z "
     style="font-style:normal;font-variant:normal;font-weight:bold;font-stretch:normal;font-size:27.80021286px;line-height:1.25;font-family:Orbitron;-inkscape-font-specification:'Orbitron, Bold';font-variant-ligatures:normal;font-variant-caps:normal;font-variant-numeric:normal;font-feature-settings:normal;text-align:start;letter-spacing:0px;word-spacing:0px;writing-mode:lr-tb;text-anchor:start;fill:#006a74;fill-opacity:1;stroke:none;stroke-width:0.69500953" />
</svg>
